<svg width="140" height="32" viewBox="0 0 140 32" fill="none" xmlns="http://www.w3.org/2000/svg">
<path d="M86.6963 18.22C83.6655 20.0949 82.6479 20.073 80.4224 18.0867C80.2124 18.3139 80.0099 18.5303 79.8098 18.751C79.301 19.306 78.6983 19.6666 77.8387 19.6578C77.1644 19.6513 76.6407 19.459 76.2529 18.9717C76.1319 18.8187 75.9911 18.6811 75.7886 18.4582C75.4872 18.6964 75.218 18.9018 74.9562 19.1159C73.3951 20.3942 71.5005 20.2019 70.2902 18.6395C70.1865 18.5041 70.0877 18.3664 69.9889 18.2265C69.3887 17.3787 69.033 17.2585 68.1388 17.8201C67.3163 18.338 66.5234 18.9192 65.8269 19.5639C65.1007 20.2347 65.2414 20.8269 66.2196 21.1569C67.336 21.5349 68.5192 21.7622 69.6727 22.0572C69.9098 22.1183 70.1519 22.1642 70.3791 22.2473C71.298 22.5816 71.587 23.0798 71.3647 23.9364C71.0905 24.9897 70.3915 25.8157 69.5097 26.5237C67.5411 28.1101 65.2217 29.1677 62.7516 29.9981C58.9354 31.2786 54.9858 32.0172 50.9127 31.9997C46.931 31.9844 42.9566 31.7003 39.1503 30.5291C36.9149 29.8407 35.0475 28.6651 33.6026 26.9869C33.0773 26.3765 32.4128 26.1383 31.6092 26.2724C31.5969 26.2265 31.5549 26.1544 31.5722 26.1369C32.5627 25.2803 33.5655 24.4346 34.5535 23.5758C35.26 22.9618 36.043 22.6603 37.0656 22.8416C37.3694 22.8963 37.7745 22.7499 38.0561 22.5903C38.5106 22.3303 38.4834 22.2932 39.1009 22.4592C39.3084 22.2844 39.5183 22.1074 39.7431 21.9173C40.1531 22.6515 39.8641 23.2503 39.1182 23.401C38.5847 23.5081 38.0659 23.6589 37.5324 23.7681C37.3002 23.8162 37.0261 23.8774 36.8136 23.8162C35.8231 23.53 35.0599 23.8993 34.3633 24.4412C33.9533 24.758 33.5952 25.1251 33.1209 25.5556C33.5285 25.8266 33.8249 26.0538 34.1509 26.2374C37.483 28.1013 41.0745 29.2857 45.0266 29.6594C47.8893 29.9303 50.7521 30.0789 53.6149 29.9216C58.97 29.6288 63.9743 28.2849 68.4871 25.6583C69.0404 25.3371 69.5122 24.9023 70.1939 24.3909C69.6406 24.1855 69.3047 24.026 68.9465 23.9342C67.998 23.6917 67.0298 23.5125 66.0911 23.2437C64.703 22.8482 64.3671 22.4133 64.4782 21.1219C64.6931 18.6089 66.2566 16.8739 68.6674 15.6896C69.5294 15.2656 70.2458 15.4732 70.8386 16.1943C71.0559 16.4587 71.2387 16.745 71.4339 17.0225C72.2514 18.1916 73.4371 18.4319 74.7388 17.6475C75.1414 17.4049 75.4946 17.0903 75.8281 16.7734C76.0751 16.5374 76.2579 16.249 76.4678 15.9824C76.5691 16.0304 76.6728 16.0807 76.7741 16.1288C76.8087 16.3189 76.8581 16.509 76.8704 16.6991C76.9371 17.5732 77.6658 17.9993 78.6069 17.6977C79.4269 17.4333 79.9876 16.8936 80.457 16.2708C80.657 16.0064 80.8497 15.7376 81.1683 15.305C81.2647 15.6917 81.3141 15.8862 81.3635 16.0807C81.608 17.0859 82.3688 17.7021 83.5198 17.6191C84.2954 17.5644 85.0661 17.3153 85.812 17.0837C86.3307 16.9242 86.516 16.5614 86.4197 16.0326C86.2665 15.2001 86.2542 14.3457 86.1084 13.5131C85.9553 12.6347 86.2344 11.9026 86.8865 11.2078C87.4324 11.4154 87.341 11.8917 87.3953 12.2479C87.5756 13.4366 87.6893 14.6341 87.8251 15.8294C87.9239 16.6925 88.1512 17.5229 88.944 18.0954C89.3343 18.3773 89.8209 18.6395 90.3026 18.7117C91.3449 18.8712 92.3675 18.6636 93.5186 18.2834C93.1209 18.0058 92.8344 17.8201 92.5627 17.6147C91.0115 16.4391 90.1593 15.0187 90.5125 13.1438C90.7768 11.7388 91.6611 10.7795 93.1505 10.3402C95.2501 9.71966 97.2879 9.92943 99.1775 10.9871C99.3948 11.1094 99.5653 11.2995 99.7579 11.4569C99.7357 11.5159 99.7135 11.5749 99.6912 11.6339C99.4467 11.6339 99.1948 11.6688 98.9576 11.6295C96.7815 11.2689 94.6597 11.4132 92.5923 12.1233C91.466 12.5101 91.3153 12.7614 91.9081 13.712C92.7726 15.0996 93.8916 16.2752 95.6823 16.7996C96.3295 16.9897 96.947 17.016 97.5769 16.78C99.1948 16.1747 100.813 15.5628 102.433 14.9619C102.727 14.8526 103.041 14.7849 103.49 14.6582C103.374 15.8425 102.717 16.485 101.717 16.8958C100.877 17.241 100.017 17.5448 99.1725 17.8769C97.3694 18.5871 95.5835 19.3322 93.7656 20.0096C93.0344 20.2828 92.249 20.4795 91.466 20.6062C89.5566 20.9121 88.0919 20.2675 87.136 18.7859C87.0174 18.6024 86.8667 18.4385 86.6988 18.22H86.6963Z" fill="#D0AB6A"/>
<path d="M36.0603 0.760443C36.2727 1.63014 36.5221 2.49547 36.6901 3.37173C37.1051 5.53287 37.0631 7.71804 37.1397 9.90103C37.2236 12.2698 37.3718 14.645 37.6707 16.9985C37.9251 19.0045 38.7625 19.4284 41.1634 18.7422C42.0724 18.4822 42.801 17.7196 43.6038 17.1798C43.9274 16.9613 44.2361 16.7253 44.5523 16.4959C44.6214 16.5265 44.6931 16.5571 44.7622 16.5899C44.7845 16.9001 44.8215 17.2104 44.8265 17.5229C44.8363 18.0954 45.1896 18.4298 45.7675 18.6111C46.9359 18.9782 48.1808 18.6068 48.9391 17.6518C49.3047 17.193 49.6455 16.721 49.9987 16.2533C50.0877 16.2708 50.1766 16.2861 50.2655 16.3036C50.3075 16.5418 50.3717 16.78 50.389 17.0203C50.4656 17.9993 51.0164 18.3161 52.0489 18.0364C52.2391 17.3568 52.4169 16.7188 52.5948 16.0785C52.6911 16.0676 52.785 16.0545 52.8813 16.0436C53.027 16.2184 53.2666 16.3779 53.3012 16.568C53.4914 17.63 53.3654 18.6439 52.5133 19.4874C51.755 20.2413 50.6755 20.2981 49.7913 19.6491C49.606 19.5114 49.4208 19.3716 49.2429 19.2383C46.6123 21.1612 45.4637 21.2508 43.9842 19.6251C43.5494 20.2915 43.8483 20.9231 44.0904 21.4999C44.8685 23.3442 46.9606 24.5067 49.2059 24.3407C52.9109 24.0653 56.0652 22.6974 58.802 20.5013C59.4319 19.9965 59.6319 19.4415 59.3701 18.7466C59.1157 18.0736 58.8811 17.394 58.5748 16.7406C58.187 15.9212 58.4167 15.2154 58.9897 14.3938C59.2219 14.6276 59.3973 14.7915 59.5529 14.9685C60.0864 15.5759 60.6027 15.742 61.4054 15.5563C62.2403 15.3618 62.3367 15.1717 61.9637 14.468C61.5932 13.7732 61.7117 13.1635 62.4824 12.2239C62.7072 12.5538 62.9937 12.8117 63.0628 13.1089C63.2876 14.0791 63.3296 15.0624 62.9023 16.0108C62.5515 16.7865 61.9834 17.3831 61.0152 17.5535C60.3977 17.6628 60.2223 17.9862 60.2396 18.4888C60.2519 18.8428 60.2346 19.199 60.205 19.5529C60.0938 20.899 59.4862 21.9807 58.2438 22.8395C55.9713 24.4106 53.5359 25.6518 50.6632 26.0801C48.902 26.3423 47.1557 26.3707 45.5872 25.407C43.5198 24.1374 42.9715 22.3325 43.2259 20.2369C43.258 19.9769 43.3024 19.719 43.342 19.459C43.2802 19.424 43.216 19.3891 43.1542 19.3541C42.9122 19.5333 42.6578 19.7015 42.4305 19.896C41.7438 20.4838 40.9238 20.8444 40 21.017C38.3574 21.3229 36.9569 20.4685 36.7025 18.9979C36.5987 18.4057 36.5716 17.8048 36.5073 17.2061C36.4777 16.9438 36.4382 16.6816 36.3789 16.2402C36.0603 16.6467 35.8923 16.9307 35.6527 17.1536C35.2525 17.5273 35.213 17.8441 35.5465 18.3008C36.0504 18.9957 36.1343 19.778 35.8379 20.5844C35.297 22.0528 33.9311 22.5029 32.5108 21.6223C32.0143 21.3142 31.6191 20.8793 31.1844 20.4948C31.0164 20.3462 30.8707 20.1779 30.6632 19.9681C30.2729 20.3921 29.9395 20.7745 29.5838 21.135C28.7538 21.9763 27.6621 22.1118 26.5357 21.8561C25.4711 21.6158 24.9426 20.8597 24.7647 19.9375C24.6363 19.2667 24.5424 18.5849 24.5152 17.9053C24.414 15.2329 24.367 12.556 24.2559 9.88355C24.1521 7.40556 24.0706 4.92102 23.3099 2.50421C23.0554 1.69788 23.3197 0.968034 23.836 0.0699272C24.0657 0.452333 24.2583 0.659925 24.3201 0.895923C24.577 1.87925 24.8734 2.86258 25.0043 3.86121C25.1624 5.04994 25.1871 6.25616 25.2365 7.45363C25.3748 10.8887 25.4958 14.3238 25.6292 17.7589C25.6366 17.9753 25.6737 18.196 25.7379 18.4035C26.2813 20.1517 27.9363 20.5996 29.4677 19.3716C29.9123 19.0154 30.2507 18.5281 30.5446 18.0561C31.0658 17.2192 31.666 16.6226 32.8936 16.6423C33.8347 16.6576 34.6597 16.2053 35.381 15.6633C35.9071 15.2678 36.1665 14.7762 36.1467 14.1534C36.0207 10.5282 36.0677 6.89423 35.3019 3.30617C35.1093 2.39714 35.3019 1.55148 35.7268 0.747332C35.8379 0.751702 35.9491 0.758257 36.0603 0.762628V0.760443ZM32.5725 18.7969C32.5207 18.8602 32.4688 18.9214 32.4145 18.9848C32.9406 19.872 33.4445 20.1342 34.3411 19.8108C33.6816 19.4328 33.1283 19.1159 32.5725 18.7969Z" fill="#D0AB6A"/>
<path d="M126.052 22.5182C126.514 23.7397 127.736 24.3887 129.137 24.1353C129.883 23.9998 130.624 23.7572 131.31 23.4622C133.185 22.6537 134.83 21.548 136.265 20.2129C136.532 19.9638 136.863 19.4481 136.747 19.2667C136.562 18.9782 136.045 18.7881 135.63 18.7007C135.038 18.5762 134.398 18.633 133.8 18.5215C132.59 18.2965 132.158 17.7851 132.395 16.7275C132.577 15.9124 132.928 15.2329 133.635 14.6844C134.457 14.0485 135.411 14.0288 136.211 14.6778C137.572 15.7792 137.982 17.2148 137.876 18.7641C137.774 20.2566 136.952 21.4125 135.628 22.3784C134.346 23.3136 133.217 24.4128 131.73 25.123C130.663 25.6343 129.599 26.0866 128.329 26.0298C126.812 25.9621 125.55 25.0989 125.18 23.79C125.12 23.578 125.064 23.3639 125.036 23.1476C124.985 22.7433 124.762 22.4942 124.293 22.433C122.996 22.2582 121.993 21.6791 121.304 20.6914C120.995 20.2478 120.664 20.1408 120.091 20.4095C117.656 21.5524 115.099 22.433 112.397 22.9312C110.643 23.2546 108.855 23.4513 107.079 23.0623C105.343 22.6843 104.174 21.7403 103.848 20.1451C103.559 18.7291 103.683 17.3153 104.184 15.9409C104.256 15.7398 104.399 15.5606 104.508 15.3705C104.579 15.3771 104.651 15.3836 104.72 15.3902C104.696 15.6721 104.651 15.9518 104.646 16.2337C104.631 17.0684 104.426 17.9512 104.666 18.727C105.145 20.2828 106.773 21.1809 108.662 21.2792C111.757 21.4409 114.655 20.757 117.488 19.7584C118.147 19.5267 118.78 19.2383 119.434 18.9957C120.007 18.7838 120.185 18.5106 120.002 17.9228C119.622 16.6969 119.795 15.4863 120.492 14.3544C120.788 13.8737 121.168 13.5262 121.857 13.524C122.561 13.524 122.915 13.8912 123.184 14.3828C124.026 15.9146 123.917 17.3896 122.836 18.8034C122.391 19.3847 122.423 19.577 123.078 19.9922C123.204 20.0708 123.335 20.1451 123.47 20.2085C124.767 20.7941 125.195 20.6259 125.59 19.3781C125.686 19.0766 125.792 18.7794 125.894 18.48C125.982 18.4953 126.074 18.5106 126.163 18.5259C126.108 18.8755 126.066 19.2274 125.992 19.5726C125.834 20.3287 126.091 20.6106 126.909 20.368C128.01 20.0381 129.097 19.6316 130.125 19.1509C130.841 18.8165 130.809 18.4167 130.083 18.0845C129.604 17.866 129.043 17.7655 128.504 17.6824C128.084 17.6191 127.642 17.6715 127.21 17.6606C126.099 17.63 125.488 17.158 125.585 16.1943C125.654 15.5126 125.898 14.8002 126.257 14.1927C126.906 13.0914 128.109 12.8641 129.317 13.5328C130.75 14.3238 131.318 15.5759 131.498 16.9788C131.891 20.0446 129.809 21.6158 126.911 22.35C126.649 22.4155 126.378 22.4549 126.042 22.5182H126.052ZM120.627 16.3101C120.81 16.8193 120.941 17.2323 121.107 17.6344C121.257 18.0058 121.556 18.019 121.922 17.8616C122.774 17.4967 122.883 16.9286 122.25 16.0479C122.018 15.7267 121.746 15.3181 121.26 15.53C120.973 15.6546 120.832 16.0436 120.63 16.308L120.627 16.3101ZM135.364 16.8106C135.24 16.1004 134.781 15.9605 134.287 15.9518C134.114 15.9496 133.869 16.1506 133.785 16.3101C133.743 16.391 133.958 16.686 134.102 16.7166C134.484 16.7953 134.892 16.7843 135.364 16.8127V16.8106ZM128.569 15.8207C128.608 15.7245 128.648 15.6306 128.687 15.5344C128.396 15.3727 128.122 15.1607 127.803 15.069C127.628 15.0187 127.378 15.1739 127.163 15.2372C127.314 15.4099 127.425 15.6677 127.623 15.7376C127.904 15.8381 128.25 15.801 128.566 15.8207H128.569Z" fill="#D0AB6A"/>
<path d="M7.11868 17.3918C7.04458 17.7545 6.99024 18.1238 6.8939 18.4822C6.20723 21.0258 8.20056 23.8468 11.918 23.8119C13.9286 23.7922 15.8725 23.2809 17.7152 22.5335C19.1849 21.937 20.5014 21.135 21.7068 20.1845C22.4873 19.5704 22.4799 19.4087 22.0575 18.5674C21.4944 17.4464 20.9683 16.3101 20.4668 15.1651C20.1482 14.4331 20.2001 14.1162 20.6224 13.122C21.5191 13.4454 22.023 14.1468 22.7516 14.7237C22.5466 14.8942 22.3836 15.0318 22.1465 15.2263C22.2502 15.4383 22.3688 15.6786 22.4849 15.9234C22.7096 16.4019 22.9764 16.8695 23.1419 17.3634C23.7915 19.3126 23.1295 20.8597 21.3733 22.1599C19.054 23.8774 16.4925 25.1361 13.5038 25.5906C11.7105 25.8637 9.93948 25.7938 8.37346 24.7646C7.33851 24.085 6.61479 23.2153 6.3332 22.1205C5.91576 20.4904 6.12572 18.893 6.82721 17.3568C6.92354 17.37 7.01988 17.3809 7.11621 17.394L7.11868 17.3918Z" fill="#D0AB6A"/>
<path d="M62.2823 6.9882C62.4355 6.03546 63.0876 5.72517 63.8014 5.5438C65.1328 5.20509 66.4814 4.92102 67.8276 4.62821C72.7306 3.56403 77.6362 2.50422 82.5417 1.45096C82.9443 1.36356 83.3617 1.33078 83.8409 1.26304C83.8236 2.05407 83.2975 2.30974 82.7022 2.45833C81.6945 2.70744 80.6719 2.91066 79.6591 3.1401C75.9911 3.96828 72.3231 4.79428 68.6575 5.6312C66.8692 6.03983 65.0883 6.47031 63.3 6.87894C63.0184 6.94449 62.7171 6.94231 62.2823 6.9882Z" fill="#D0AB6A"/>
<path d="M61.2276 1.20403C61.1609 1.97977 60.9411 2.24418 60.1284 2.42992C58.2215 2.86695 56.3023 3.27121 54.3954 3.70606C50.31 4.63913 46.2295 5.58312 42.1465 6.52275C41.6105 6.6473 41.0843 6.79808 40.5434 6.90734C40.2964 6.9576 40.0321 6.93575 39.6986 6.94886C39.8617 6.05294 40.4199 5.67927 41.235 5.50664C43.8681 4.94505 46.5012 4.37472 49.1318 3.80221C52.9579 2.96966 56.7815 2.13055 60.6051 1.29581C60.8028 1.25211 61.0078 1.23681 61.2227 1.20622L61.2276 1.20403Z" fill="#D0AB6A"/>
<path d="M5.2538 6.62108C3.37903 7.02971 1.71174 7.39245 0 7.76611C0.125973 6.90953 0.326047 6.70412 1.25973 6.49871C3.73966 5.95023 6.22206 5.4105 8.70446 4.87294C11.4857 4.26983 14.267 3.66673 17.0483 3.07017C17.2434 3.02865 17.4484 3.03084 17.7078 3.0068C17.693 3.74321 17.1397 3.90491 16.5765 4.03165C13.3852 4.75713 10.189 5.47168 6.99518 6.1906C6.81734 6.22994 6.6395 6.27801 6.46659 6.33701C5.67371 6.6036 5.40941 7.3116 5.94294 7.88848C6.3999 8.38452 6.68396 8.92426 6.53081 9.54266C6.43942 9.91414 6.19736 10.2944 5.90589 10.5762C5.56255 10.9062 5.05619 11.0614 4.5523 10.8319C3.9916 10.5763 4.07805 10.0868 4.19168 9.67159C4.38681 8.95922 4.66346 8.26215 4.90799 7.56071C4.99444 7.31378 5.08583 7.06904 5.24886 6.62108H5.2538ZM5.16241 8.66641C4.94998 9.03352 4.75732 9.22581 4.75732 9.41374C4.75732 9.56451 5.04878 9.85733 5.12535 9.83547C5.35507 9.77429 5.71076 9.58855 5.71076 9.45525C5.71076 9.25203 5.44646 9.04881 5.16241 8.66641Z" fill="#D0AB6A"/>
<path d="M121.304 4.68283C121.643 3.79565 122.305 3.56402 122.989 3.41106C126.489 2.63751 129.994 1.88362 133.496 1.12099C135.141 0.762626 136.784 0.399887 138.431 0.0480739C138.654 0 138.893 0.0174814 139.17 0C139.165 0.585627 138.795 0.801959 138.333 0.917774C137.562 1.11225 136.784 1.28051 136.008 1.45533C133.378 2.04532 130.747 2.63314 128.119 3.22532C127.173 3.43728 126.874 4.31354 127.509 4.98657C128.344 5.86938 128.361 6.78715 127.551 7.47111C127.131 7.82511 126.42 7.96278 126.019 7.74644C125.516 7.4733 125.602 7.06686 125.733 6.65386C126.049 5.66616 126.363 4.67627 126.701 3.62083C124.913 3.81969 123.256 4.5255 121.307 4.68064L121.304 4.68283ZM127.556 6.42223C127.208 6.17749 127.03 5.97427 126.807 5.91745C126.417 5.81912 126.22 6.08134 126.247 6.37634C126.262 6.53586 126.511 6.81119 126.63 6.80026C126.889 6.77841 127.133 6.60797 127.556 6.42004V6.42223Z" fill="#D0AB6A"/>
<path d="M91.2832 7.34C91.214 7.97152 90.7867 8.19222 90.2556 8.31241C88.8526 8.62926 87.4571 8.98544 86.0392 9.23236C84.9351 9.42466 84.3819 10.1174 83.8409 10.8494C83.6359 11.1269 83.6507 11.4372 84.0879 11.5792C84.4065 11.6819 84.5548 11.8524 84.3991 12.1408C84.1991 12.5079 83.8212 12.6806 83.4087 12.5604C83.1789 12.4926 82.8603 12.1955 82.8801 12.025C82.9221 11.6339 83.1172 11.2493 83.3049 10.8822C83.463 10.5719 83.7001 10.2944 83.831 9.9054C80.3236 10.4495 76.9569 11.3935 73.4099 12.1059C73.5383 11.3258 73.9434 11.022 74.5634 10.8844C76.5962 10.4342 78.6242 9.97314 80.657 9.52955C84.0657 8.7844 87.4793 8.05019 90.8929 7.31597C90.9744 7.29848 91.0683 7.32471 91.2832 7.34219V7.34Z" fill="#D0AB6A"/>
<path d="M98.2413 7.17175C98.4834 6.36761 99.0564 6.11631 99.7431 5.96772C102.287 5.41924 104.826 4.86421 107.371 4.31354C110.001 3.74321 112.629 3.17507 115.26 2.61129C115.492 2.56103 115.734 2.54574 116.031 2.5064C116.218 3.1401 115.719 3.31492 115.28 3.44166C114.578 3.64269 113.85 3.76943 113.136 3.93114C108.517 4.98658 103.898 6.0442 99.2763 7.09309C98.9749 7.16083 98.6513 7.14334 98.2413 7.17394V7.17175Z" fill="#D0AB6A"/>
<path d="M97.7597 23.5868C97.7547 24.2533 97.3323 24.4346 96.8359 24.5461C95.1957 24.9132 93.5507 25.2628 91.913 25.6387C88.786 26.3576 85.6613 27.0874 82.5367 27.8129C81.9711 27.944 81.4079 28.0861 80.8398 28.2019C80.62 28.2456 80.3828 28.2281 80.1136 28.239C80.1136 27.4196 80.6768 27.1814 81.3338 27.0394C83.3963 26.5914 85.4613 26.1522 87.5238 25.7064C90.6014 25.0421 93.6791 24.3713 96.7593 23.7113C97.068 23.6458 97.3916 23.6305 97.7621 23.5846L97.7597 23.5868Z" fill="#D0AB6A"/>
<path d="M20.3285 3.51595C20.6052 2.89755 20.746 2.41462 21.0251 2.006C21.3561 1.51652 21.9365 1.54929 22.1811 2.01255C22.3836 2.39714 22.2156 2.76862 21.7389 2.77518C21.2449 2.78173 21.0671 3.00462 20.9831 3.33895C20.862 3.81532 20.7361 4.30043 20.7188 4.78554C20.7114 4.96909 21.0127 5.15483 21.151 5.3515C21.3486 5.63557 21.7315 5.98083 21.6599 6.21027C21.5709 6.50309 21.1535 6.80246 20.7978 6.93138C19.7999 7.29412 19.8049 7.25479 20.0222 8.15726C20.2643 9.16463 20.5607 10.1742 20.3359 11.2558C19.4072 10.113 19.2046 7.18923 19.9037 6.42005C19.8641 6.08135 19.7431 5.7929 19.8172 5.55254C20.0865 4.66972 19.7061 3.83936 18.8267 3.36954C18.5822 3.23843 18.2932 2.92595 18.313 2.71836C18.3352 2.48236 18.6662 2.10433 18.8885 2.09122C19.1725 2.07374 19.543 2.30536 19.7629 2.5217C19.9975 2.75114 20.0963 3.08766 20.3285 3.51377V3.51595Z" fill="#D0AB6A"/>
<path d="M112.39 18.7466C113.346 18.2156 114.307 17.6934 115.255 17.1536C115.801 16.8455 116.339 16.5287 116.863 16.1922C117.673 15.6743 117.804 15.3356 117.508 14.5096C117.263 13.8365 117.051 13.1635 116.07 12.9712C115.584 12.8751 115.495 12.4118 115.766 12.036C116.055 11.6361 116.574 11.4787 116.947 11.7584C117.266 11.9966 117.493 12.3375 117.728 12.65C117.871 12.8401 117.955 13.0652 118.157 13.4454C118.35 12.9078 118.449 12.5473 118.612 12.2086C118.753 11.9114 118.901 11.5661 119.168 11.387C119.378 11.2449 119.834 11.2253 120.072 11.3367C120.262 11.4263 120.368 11.7934 120.363 12.036C120.356 12.3943 120.017 12.4468 119.681 12.3812C119.185 12.2851 119.007 12.5669 118.906 12.8991C118.777 13.3186 118.693 13.7491 118.59 14.1752C118.182 15.8556 117.105 17.1012 115.383 17.8747C114.462 18.2899 113.484 18.609 112.531 18.9695C112.484 18.8952 112.434 18.8209 112.387 18.7466H112.39Z" fill="#D0AB6A"/>
<path d="M138.227 5.27719C138.333 5.00623 138.407 4.65223 138.604 4.36379C138.777 4.11031 139.054 3.8612 139.353 3.75194C139.484 3.70387 139.78 4.01635 140 4.16494C139.842 4.32446 139.679 4.62164 139.528 4.61727C139.027 4.59979 138.866 4.8642 138.772 5.19197C138.637 5.66616 138.483 6.14689 138.459 6.62982C138.449 6.82867 138.711 7.08871 138.926 7.23293C139.266 7.46019 139.546 7.67652 139.474 8.09607C139.402 8.51344 139.064 8.66422 138.664 8.7844C137.542 9.12092 137.582 9.11873 137.824 10.1042C138.071 11.1051 138.293 12.1212 137.975 13.1853C137.913 13.0258 137.836 12.8685 137.797 12.7046C137.616 11.9595 137.426 11.2165 137.28 10.4648C137.157 9.82673 137.226 9.20833 137.342 8.55059C137.476 7.78578 138.059 6.99037 137.518 6.15564C137.256 5.75138 137.078 5.32964 136.5 5.16575C136.09 5.04994 135.912 4.76805 136.162 4.3922C136.384 4.0535 136.777 3.91802 137.098 4.14309C137.508 4.42935 137.807 4.84235 138.229 5.27501L138.227 5.27719Z" fill="#D0AB6A"/>
<path d="M39.8567 10.8691C40.1235 10.0518 40.8843 9.98843 41.5364 9.83984C43.6507 9.3591 45.7774 8.92425 47.8967 8.46974C48.5464 8.32988 49.191 8.17474 49.8975 8.01303C50.0531 8.64018 49.5838 8.75599 49.1762 8.90896C48.8131 9.04662 48.4006 9.1231 48.0943 9.32632C47.2274 9.90321 47.2842 10.3599 48.3018 10.8079C48.1907 10.9892 48.1265 11.2624 47.9585 11.3279C47.6547 11.4481 47.2348 11.553 46.9655 11.4525C46.7753 11.3826 46.6568 10.9521 46.6815 10.6942C46.7161 10.3337 46.9137 9.98625 47.1162 9.42684C44.5572 9.84421 42.2601 10.5784 39.8518 10.8647L39.8567 10.8691Z" fill="#D0AB6A"/>
<path d="M103.169 27.4589C103.011 27.5988 102.87 27.7648 102.69 27.8741C101.783 28.4226 100.761 28.5668 99.6937 28.4663C98.7897 28.3811 98.3475 27.8479 98.6415 27.0962C98.8662 26.5193 99.2689 25.9992 99.6122 25.418C99.5134 25.1645 99.2121 24.793 99.2936 24.5024C99.4097 24.0806 99.753 23.6786 100.094 23.3464C100.257 23.1869 100.64 23.176 100.926 23.1585C100.988 23.1541 101.119 23.412 101.134 23.5562C101.173 23.9124 100.882 24.002 100.553 24.061C100.452 24.0784 100.37 24.1746 100.222 24.2729C100.983 24.8651 101.351 23.8883 101.986 24.0326C102.161 24.4434 101.813 24.6597 101.524 24.8848C100.924 25.3524 100.284 25.7829 99.7258 26.2855C99.5035 26.4865 99.3207 26.8645 99.3775 27.118C99.4171 27.3038 99.874 27.531 100.153 27.5376C100.852 27.5529 101.554 27.4633 102.253 27.3977C102.515 27.3737 102.771 27.3059 103.031 27.2579C103.078 27.3256 103.125 27.3934 103.169 27.4589Z" fill="#D0AB6A"/>
<path d="M80.8151 21.6223C81.0646 21.7381 81.2918 21.819 81.487 21.9413C81.9365 22.2254 82.3367 22.3827 82.7072 21.8365C82.9196 21.524 83.2679 21.5415 83.6013 21.701C83.7891 21.7906 83.9694 21.8976 84.1448 22.0091C84.8537 22.4505 84.8611 23.3923 84.12 23.8184C83.9496 23.9167 83.6038 23.8556 83.3766 23.7769C83.0406 23.6611 82.7418 23.4666 82.4478 23.318C81.4326 24.1112 81.0275 24.1068 80.1606 23.3464C79.7258 22.9618 79.8814 22.5117 80.8127 21.6245L80.8151 21.6223Z" fill="#D0AB6A"/>
<path d="M126.052 9.52955C126.844 8.69044 127.008 8.65985 127.825 9.14496C128.648 9.63225 128.707 10.3118 127.931 10.8691C127.768 10.9871 127.435 10.9805 127.198 10.9434C127.003 10.9128 126.827 10.7598 126.652 10.6484C126.279 10.408 125.973 10.4189 125.758 10.8144C125.498 11.2952 125.148 11.2711 124.728 10.9805C124.56 10.8625 124.374 10.762 124.189 10.6658C123.762 10.4473 123.577 10.2026 123.826 9.73714C124.332 8.79752 124.528 8.72541 125.533 9.27607C125.689 9.36129 125.849 9.4334 126.047 9.53174L126.052 9.52955Z" fill="#D0AB6A"/>
<path d="M10.2779 13.6573C10.6015 12.9668 10.7941 12.4162 11.1078 11.9267C11.4141 11.4459 11.9229 11.3629 12.2416 11.7169C12.4219 11.9158 12.533 12.2763 12.4614 12.5145C12.3009 13.0695 11.8167 12.6675 11.2931 12.6718C11.1325 13.1766 10.9621 13.7098 10.7916 14.2452C10.683 14.5839 10.6262 14.9466 10.4508 15.2569C10.2606 15.5912 9.95924 15.5628 9.76658 15.2263C9.65543 15.034 9.62085 14.8089 9.52946 14.6079C9.26763 14.031 9.08485 13.4279 8.18575 13.3099C7.71397 13.2487 7.62999 12.8641 7.81524 12.4621C8.08448 11.8742 8.43028 11.6317 8.89465 11.8589C9.2454 12.0316 9.53192 12.3462 9.77152 12.6456C9.97653 12.9035 10.0704 13.229 10.2779 13.6573Z" fill="#D0AB6A"/>
<path d="M66.0689 14.4025C66.0393 14.2517 65.9775 14.0966 65.9874 13.948C66.0887 12.3637 65.3674 11.0941 64.1126 10.0125C63.4877 9.47273 63.4507 9.21707 63.8014 8.74507C64.0756 8.37578 64.4189 8.284 64.8018 8.57244C65.1031 8.7997 65.4045 9.05099 65.6194 9.34162C66.6 10.6637 67.0965 12.0949 66.6938 13.6858C66.6247 13.9545 66.4468 14.2015 66.3184 14.4593C66.2344 14.4396 66.1504 14.42 66.0665 14.4003L66.0689 14.4025Z" fill="#D0AB6A"/>
<path d="M101.845 4.99094C101.714 4.66753 101.586 4.34194 101.447 4.01854C101.218 3.47661 100.981 2.96528 100.207 2.83417C99.8123 2.76643 99.5579 2.43428 99.6986 2.08247C99.8098 1.80277 100.062 1.50558 100.343 1.35262C100.721 1.1494 101.057 1.39633 101.262 1.69132C101.564 2.12617 101.828 2.58288 102.211 3.19254C102.371 2.76425 102.47 2.44521 102.611 2.14366C102.784 1.76999 102.925 1.35918 103.211 1.06418C103.367 0.904661 103.927 0.830365 104.076 0.94618C104.303 1.12536 104.407 1.49684 104.426 1.79403C104.446 2.11088 104.16 2.28351 103.794 2.21577C103.206 2.10651 103.016 2.45176 102.892 2.8298C102.739 3.29961 102.665 3.78909 102.517 4.2589C102.433 4.52331 102.268 4.76805 102.139 5.02153C102.043 5.0106 101.944 4.99968 101.848 4.98875L101.845 4.99094Z" fill="#D0AB6A"/>
<path d="M86.3702 5.31217C85.6095 5.24443 84.8487 5.1745 84.0385 5.10239C84.1867 4.4075 84.5473 3.98795 85.1994 3.85028C86.306 3.61647 87.3706 3.84373 88.4352 4.09721C87.9288 5.91527 86.1232 6.91827 84.4584 6.77842C85.1747 6.33701 85.8145 5.94368 86.4567 5.54816C86.4295 5.4695 86.3999 5.39083 86.3727 5.30998L86.3702 5.31217Z" fill="#D0AB6A"/>
<path d="M13.5482 10.5172C14.309 10.1064 15.0154 9.72403 15.7219 9.34381C15.6996 9.25203 15.6774 9.16025 15.6576 9.06848C14.8425 9.01385 14.0299 8.95922 13.1332 8.90022C13.3802 8.17693 13.7458 7.66778 14.5091 7.635C15.3884 7.59785 16.2776 7.66559 17.1545 7.75082C17.3076 7.76611 17.5596 8.10919 17.5299 8.26652C17.3126 9.48803 15.0352 10.7926 13.5507 10.5194L13.5482 10.5172Z" fill="#D0AB6A"/>
<path d="M106.546 9.64973C107.383 9.20614 108.077 8.83904 108.774 8.46974C108.761 8.39107 108.746 8.31459 108.734 8.23593C107.87 8.17037 107.005 8.10263 106.069 8.03271C106.469 7.22201 106.953 6.74782 107.857 6.7806C108.588 6.80682 109.322 6.81338 110.051 6.87238C110.52 6.91171 110.663 7.18704 110.503 7.57819C110.093 8.58774 108.178 9.78959 106.966 9.79614C106.884 9.79614 106.805 9.74151 106.546 9.64973Z" fill="#D0AB6A"/>
<path d="M131.105 11.3389C131.819 10.9849 132.521 10.6374 133.318 10.2419C132.469 9.68251 131.555 9.9491 130.713 9.7284C130.804 9.11218 131.152 8.62489 131.785 8.55496C132.659 8.461 133.563 8.52874 134.447 8.58556C134.951 8.61833 135.104 8.93518 134.951 9.35911C134.6 10.3228 132.464 11.5727 131.271 11.5049C131.229 11.5028 131.194 11.4328 131.1 11.3411L131.105 11.3389Z" fill="#D0AB6A"/>
<path d="M80.3359 6.37197C80.4174 6.09008 80.494 5.8082 80.5854 5.52849C80.6521 5.3209 80.7064 5.10238 80.8225 4.91665C81.0498 4.55391 81.319 4.18024 81.8945 4.3638C82.3342 4.50365 82.4256 4.97346 82.1712 5.5416C81.0967 5.50883 81.0942 5.50664 80.8151 6.46593C80.6916 6.88767 80.615 7.32034 80.4668 7.73334C80.3829 7.96715 80.1976 8.17256 79.9457 8.5637C79.6221 7.87974 79.3973 7.38808 79.1552 6.90078C78.9799 6.54679 78.765 6.25179 78.2635 6.15564C78.0314 6.11194 77.6707 5.81475 77.6905 5.66616C77.7275 5.38209 77.9276 5.02809 78.1894 4.8795C78.392 4.76368 78.8539 4.83579 79.0836 4.97564C79.3677 5.15046 79.5455 5.47386 79.7431 5.74701C79.8888 5.94805 79.9901 6.17094 80.1111 6.3829C80.1852 6.37853 80.2618 6.37416 80.3359 6.36979V6.37197Z" fill="#D0AB6A"/>
<path d="M100.622 20.4751C100.741 20.1473 100.835 19.8108 100.99 19.4961C101.121 19.2252 101.262 18.904 101.512 18.751C101.731 18.6155 102.196 18.5674 102.391 18.6876C102.596 18.8144 102.717 19.1968 102.682 19.4459C102.633 19.7846 102.28 19.7933 101.949 19.6928C101.867 19.6688 101.769 19.6884 101.517 19.6884C101.359 20.1692 101.21 20.6827 101.018 21.1809C100.84 21.642 100.966 22.232 100.242 22.6144C100.081 22.2953 99.9333 22.0222 99.8024 21.7425C99.5257 21.1416 99.3355 20.5275 98.4488 20.3352C97.9103 20.2172 97.8387 19.8501 98.103 19.4284C98.3796 18.9892 98.8193 18.8275 99.2441 19.0809C99.5134 19.2405 99.7233 19.4961 99.9135 19.7365C100.099 19.9725 100.227 20.2435 100.38 20.4991C100.462 20.4904 100.543 20.4816 100.627 20.4729L100.622 20.4751Z" fill="#D0AB6A"/>
<path d="M53.6149 27.5878C53.6989 26.9126 54.1608 26.7072 54.6696 26.587C55.7416 26.3335 56.8235 26.115 57.9005 25.879C59.5455 25.5207 61.1906 25.1557 62.8381 24.8061C63.09 24.7537 63.3568 24.7646 63.6186 24.7471C63.6582 24.817 63.7001 24.887 63.7397 24.9591C63.5124 25.1186 63.3099 25.3546 63.0505 25.4267C62.1984 25.6605 61.324 25.8288 60.4619 26.032C58.5254 26.4887 56.5938 26.9563 54.6573 27.413C54.3436 27.4873 54.02 27.5223 53.6149 27.59V27.5878Z" fill="#D0AB6A"/>
<path d="M41.7241 15.6677C42.6602 15.211 43.4185 14.8417 44.1768 14.4724C44.1571 14.3894 44.1349 14.3085 44.1151 14.2255C43.2901 14.1446 42.4676 14.066 41.5808 13.9786C41.7142 13.3099 42.0427 12.8401 42.7294 12.7898C43.5816 12.7287 44.456 12.7461 45.3057 12.8335C45.9158 12.8969 46.1035 13.2859 45.7651 13.7295C44.9203 14.8395 43.7149 15.5126 42.2453 15.8097C42.1489 15.8294 42.0279 15.7529 41.7241 15.6655V15.6677Z" fill="#D0AB6A"/>
<path d="M55.1019 8.14197C55.2056 7.84042 55.302 7.53449 55.418 7.23512C55.507 7.00349 55.5786 6.75875 55.7268 6.55772C55.9911 6.19935 56.4184 6.02454 56.826 6.28676C57.0433 6.42442 57.2237 6.80027 57.1767 7.02972C57.0631 7.58475 56.579 7.29194 56.2282 7.20016C55.2822 8.00212 55.8207 9.346 54.724 10.2376C54.4597 9.68033 54.2448 9.24767 54.0521 8.81063C53.8669 8.3889 53.6248 8.07642 53.0666 7.94093C52.454 7.79234 52.3428 7.45364 52.6219 7.01442C52.9134 6.55553 53.3852 6.42879 53.8496 6.74564C54.1064 6.92264 54.3016 7.18268 54.4844 7.4296C54.6499 7.65031 54.7585 7.9016 54.8944 8.13978C54.9636 8.13978 55.0327 8.13978 55.1019 8.13978V8.14197Z" fill="#D0AB6A"/>
<path d="M29.6085 16.8084C29.3442 15.4208 29.0157 14.0398 28.8452 12.6434C28.786 12.1561 29.1194 11.6339 29.3195 10.9827C29.0256 10.7729 29.1367 10.3883 29.5171 10.0409C29.9321 9.66066 30.3767 9.8311 30.7719 10.0693C31.1498 10.2965 31.587 10.5413 31.4783 11.033C31.377 11.4831 30.9695 11.6667 30.4952 11.7956C29.3269 12.1146 29.2849 12.202 29.5566 13.2487C29.937 14.7128 29.9889 15.766 29.6085 16.8084Z" fill="#D0AB6A"/>
<path d="M73.9212 6.64293C73.4865 7.12585 73.0369 7.59785 72.6195 8.0917C72.3453 8.41511 72.0612 8.74944 71.8883 9.11873C71.5623 9.81143 71.8809 10.137 72.738 10.0584C72.8838 10.0452 73.032 10.0365 73.1777 10.0278C73.3284 10.8581 73.0517 11.3411 72.2959 11.6098C71.2634 11.9791 70.4137 11.4787 70.6138 10.5085C70.7645 9.78303 71.0881 9.03351 71.5549 8.42603C72.1304 7.68307 72.9332 7.07996 73.6396 6.41567C73.7335 6.49215 73.8298 6.56863 73.9237 6.64293H73.9212Z" fill="#D0AB6A"/>
<path d="M79.5998 24.6357C79.8172 25.3939 79.4887 25.9052 78.718 25.8681C77.6979 25.8178 76.6778 26.1697 75.6329 25.7392C75.2575 25.584 74.6029 25.7916 74.1509 25.9774C73.5161 26.2374 72.9628 26.6504 72.3527 26.9651C71.8686 27.2142 71.3523 27.4174 70.7595 27.6796C70.7892 27.4589 70.7743 27.3824 70.804 27.3649C71.9649 26.6569 73.1085 25.9249 74.3016 25.2606C75.0549 24.8411 75.8923 24.7318 76.779 25.0093C77.0631 25.0989 77.4707 25.112 77.7226 24.994C78.1079 24.8105 78.3796 24.5155 78.8391 24.9066C78.9206 24.9744 79.3331 24.734 79.5974 24.6357H79.5998Z" fill="#D0AB6A"/>
<path d="M112.773 9.53392C112.56 9.78522 112.348 10.0365 112.138 10.2878C111.757 10.7467 111.315 11.1794 111.011 11.6754C110.582 12.379 110.89 12.7439 111.804 12.7199C111.925 12.7177 112.049 12.7155 112.17 12.7199C112.197 12.7199 112.224 12.7396 112.308 12.7745C112.573 13.3405 112.197 13.7316 111.738 14.0616C111.278 14.3916 110.735 14.503 110.182 14.2626C109.7 14.0551 109.576 13.6486 109.646 13.2181C109.925 11.5181 111.021 10.3118 112.545 9.37441C112.619 9.42685 112.696 9.47929 112.77 9.53392H112.773Z" fill="#D0AB6A"/>
<path d="M119.128 3.22095C118.207 2.26602 118.15 1.65199 118.866 1.09696C119.091 0.922141 119.506 0.766994 119.755 0.834734C119.97 0.891549 120.099 1.2674 120.215 1.52088C120.351 1.81588 120.403 2.13928 120.538 2.43428C120.776 2.94998 120.662 3.12261 120.049 3.30398C119.758 3.3892 119.469 3.57276 119.259 3.77598C118.367 4.62601 117.34 5.29905 116.137 5.76012C116.038 5.79727 115.917 5.78634 115.717 5.66616C116.841 4.85983 117.965 4.05568 119.128 3.22095Z" fill="#D0AB6A"/>
<path d="M23.8928 28.1735C23.6878 27.0481 23.5075 25.973 23.2926 24.9023C23.1419 24.1593 23.0752 23.4426 23.5544 22.7608C23.6236 22.6625 23.5248 22.4855 23.5544 22.3565C23.631 22.0593 23.6507 21.6857 23.8656 21.5043C24.0435 21.3535 24.5103 21.3361 24.7771 21.4256C25.2242 21.5764 25.7305 21.7993 25.7231 22.3259C25.7157 22.881 25.239 23.0929 24.7129 23.2546C23.6804 23.5737 23.6063 23.6939 23.8681 24.6291C24.2016 25.8113 24.2633 26.9891 23.8903 28.1756L23.8928 28.1735Z" fill="#D0AB6A"/>
<path d="M121.112 27.3562C120.961 27.0656 120.808 26.775 120.662 26.4821C120.435 26.0254 120.188 25.6103 119.568 25.4595C119.187 25.3655 118.908 25.1339 119.16 24.7187C119.39 24.3429 119.713 24.0916 120.203 24.3166C120.459 24.4346 120.669 24.6553 120.852 24.8629C121.032 25.0683 121.151 25.3174 121.405 25.7151C121.652 25.1448 121.801 24.7165 122.02 24.3188C122.351 23.7245 122.939 23.6392 123.315 24.1003C123.628 24.4871 123.448 24.935 122.925 24.8935C122.25 24.8411 122.154 25.1929 122.038 25.6037C121.919 26.0254 121.815 26.4537 121.67 26.8689C121.606 27.0568 121.457 27.2229 121.346 27.3977C121.267 27.3846 121.188 27.3715 121.109 27.3562H121.112Z" fill="#D0AB6A"/>
<path d="M59.8691 7.37715C59.5406 8.02614 59.9308 8.45444 60.3088 8.93736C61.0597 9.90102 60.5064 11.3105 59.3504 11.5443C58.639 11.6863 58.0709 11.3367 58.2339 10.7445C58.5204 9.69343 58.9428 8.67077 59.3158 7.63937C59.3701 7.48859 59.4739 7.35092 59.5554 7.2067C59.6591 7.26352 59.7653 7.32033 59.8691 7.37933V7.37715ZM60.0049 10.1348C59.7382 9.76991 59.5011 9.42247 59.054 9.69562C58.8909 9.79614 58.7971 10.2769 58.9132 10.3927C59.3281 10.8013 59.6418 10.4517 60.0049 10.1348Z" fill="#D0AB6A"/>
<path d="M135.193 28.3024C135.722 27.7058 136.28 27.1268 136.767 26.5062C136.954 26.2658 137.108 25.9009 137.038 25.6452C136.996 25.4923 136.49 25.4333 136.189 25.3458C136.023 25.2978 135.85 25.2759 135.63 25.23C135.682 24.6138 136.063 24.227 136.581 23.9801C137.468 23.5584 138.266 23.9845 138.17 24.8651C138.113 25.3852 137.871 25.9162 137.589 26.386C137.066 27.2601 136.258 27.9134 135.324 28.4313C135.28 28.3898 135.238 28.3461 135.193 28.3046V28.3024Z" fill="#D0AB6A"/>
<path d="M26.7655 8.90677C26.8075 8.33207 27.1483 8.0917 27.5509 7.96715C29.6035 7.33126 31.6685 6.7216 33.731 6.10757C33.773 6.09445 33.8397 6.14253 33.9533 6.18405C33.9286 6.6189 33.5803 6.81993 33.1851 6.94886C31.261 7.58474 29.3294 8.20752 27.3978 8.82811C27.2397 8.87837 27.0569 8.874 26.7655 8.90677Z" fill="#D0AB6A"/>
<path d="M106.812 25.2169C106.864 24.9481 106.872 24.7253 106.956 24.5308C107.166 24.0435 107.719 23.79 108.297 23.8818C108.821 23.967 109.107 24.3472 109.082 24.9263C109.033 26.0036 107.736 27.4589 106.259 27.9112C106.486 27.5944 106.6 27.4021 106.751 27.2338C107.072 26.8689 107.442 26.5346 107.731 26.1522C107.87 25.9708 107.973 25.6649 107.892 25.4923C107.828 25.359 107.45 25.3393 107.208 25.2759C107.121 25.2541 107.03 25.2497 106.815 25.2169H106.812Z" fill="#D0AB6A"/>
<path d="M65.1352 4.3048C65.5897 3.86777 66.0763 3.4504 66.4937 2.98714C67.0199 2.4037 66.8988 2.15459 66.0862 1.90111C65.9182 1.84867 65.7009 1.70007 65.6712 1.56459C65.5922 1.22152 66.1553 0.795412 66.7358 0.694894C67.2446 0.607487 67.6077 0.775745 67.7189 1.21497C67.7831 1.46845 67.7609 1.76563 67.6744 2.01474C67.3336 3.01773 66.6642 3.81532 65.6539 4.37254C65.523 4.44465 65.3402 4.44247 65.1821 4.47306C65.1649 4.41625 65.1476 4.35943 65.1303 4.3048H65.1352Z" fill="#D0AB6A"/>
<path d="M14.4251 19.9441C14.0398 19.6447 13.3827 19.3497 13.1654 18.8908C13.0196 18.5849 13.4939 18.0452 13.7014 17.6125C13.7186 17.5732 13.8026 17.5535 13.8594 17.536C14.2201 17.4246 15.4082 18.0823 15.5588 18.4757C15.6897 18.8209 15.1883 19.7365 14.7981 19.8676C14.7412 19.8873 14.6795 19.8938 14.4276 19.9463L14.4251 19.9441Z" fill="#D0AB6A"/>
<path d="M30.5199 5.21165C30.4878 5.05869 30.4261 4.90354 30.4335 4.75058C30.4656 3.93988 30.0655 3.28651 29.5171 2.68122C29.364 2.51296 29.2083 2.3447 29.0601 2.17207C28.8082 1.87707 28.5735 1.54055 28.9811 1.24118C29.3936 0.939631 29.7295 1.2237 29.9963 1.49248C30.8238 2.3294 31.1325 3.33895 31.1053 4.42498C31.0979 4.71124 30.8905 4.99313 30.7768 5.27939C30.6904 5.25754 30.6064 5.2335 30.5199 5.21165Z" fill="#D0AB6A"/>
<path d="M8.78597 1.68914C8.90947 1.46188 8.99839 1.17344 9.19352 0.961475C9.51957 0.607477 9.95677 0.367108 10.4878 0.594366C10.9843 0.808513 11.014 1.24336 10.9448 1.65855C10.7348 2.95436 9.7394 3.72572 8.50191 4.33976C8.60318 4.1999 8.6921 4.0535 8.81067 3.92457C9.04285 3.67328 9.31456 3.44602 9.53192 3.1838C10.2556 2.31191 10.1741 2.11743 9.01815 1.85521C8.96628 1.84429 8.92429 1.78966 8.78597 1.68477V1.68914Z" fill="#D0AB6A"/>
<path d="M90.4483 1.72847C90.4384 1.1647 90.8534 0.850031 91.3696 0.657735C91.9575 0.437032 92.3823 0.707994 92.4515 1.2827C92.5923 2.42117 91.34 4.04694 89.8999 4.45775C90.063 4.23705 90.1494 4.08628 90.268 3.96172C90.4458 3.77598 90.6582 3.61428 90.8386 3.43072C91.7969 2.46269 91.7377 2.19173 90.4483 1.73066V1.72847Z" fill="#D0AB6A"/>
<path d="M118.767 10.2244C118.291 10.2004 117.266 9.38533 117.29 9.051C117.327 8.56589 117.913 7.89067 118.276 7.91471C118.824 7.95186 119.77 8.70137 119.743 9.07504C119.706 9.5667 119.133 10.2419 118.767 10.2244Z" fill="#D0AB6A"/>
<path d="M63.1493 21.1896C62.6726 21.2071 61.6129 20.4314 61.6055 20.0577C61.5956 19.5945 62.0971 18.987 62.5096 18.9586C63.1172 18.9171 64.083 19.5508 64.078 19.9878C64.0731 20.4423 63.505 21.1765 63.1493 21.1896Z" fill="#D0AB6A"/>
<path d="M54.2818 14.8024C53.8175 14.4134 53.2321 14.0835 52.9332 13.6115C52.7109 13.2618 53.5457 12.4271 53.9335 12.4555C54.5807 12.5036 55.4156 13.1832 55.3761 13.6268C55.3341 14.0856 54.7758 14.6953 54.2818 14.8024Z" fill="#D0AB6A"/>
<path d="M107.348 16.8084C107.22 16.3145 107.185 15.777 106.938 15.3334C106.62 14.7609 106.155 14.243 105.706 13.736C105.402 13.3951 105.375 13.087 105.706 12.7986C106.066 12.4839 106.321 12.7898 106.548 12.9931C107.561 13.9065 107.931 15.0231 107.795 16.2752C107.773 16.4675 107.632 16.651 107.546 16.839C107.482 16.828 107.415 16.8171 107.351 16.804L107.348 16.8084Z" fill="#D0AB6A"/>
<path d="M96.206 4.42279C96.3369 4.23268 96.4061 4.09283 96.5148 3.98357C96.7371 3.7585 96.9939 3.56183 97.2138 3.33458C98.0808 2.43428 97.9992 2.14147 96.6111 1.71973C96.8334 1.41599 96.9692 1.06199 97.2484 0.89592C97.5398 0.723291 98.0165 0.607477 98.3204 0.70144C98.5402 0.76918 98.723 1.21714 98.7279 1.49903C98.7477 2.5348 97.4534 4.03165 96.2085 4.42279H96.206Z" fill="#D0AB6A"/>
<path d="M102.146 12.8532C102.48 12.473 102.838 12.1081 103.144 11.7125C103.829 10.8275 103.695 10.5653 102.529 10.408C102.477 9.71965 102.986 9.17336 103.693 9.17336C104.177 9.17336 104.466 9.42466 104.463 9.82454C104.463 10.2222 104.407 10.644 104.244 11.0111C103.863 11.8633 103.154 12.4839 102.307 12.9799C102.253 12.9384 102.201 12.8969 102.146 12.8532Z" fill="#D0AB6A"/>
<path d="M115.863 25.8812C115.403 25.7261 115.129 25.6321 114.726 25.4966C114.927 25.2475 115.045 24.9547 115.27 24.8586C115.539 24.7449 115.932 24.7209 116.208 24.8083C116.374 24.8607 116.502 25.2016 116.512 25.418C116.544 26.1194 115.505 27.2797 114.524 27.5769C114.998 26.9782 115.403 26.4625 115.865 25.8812H115.863Z" fill="#D0AB6A"/>
<path d="M96.9544 5.54598C96.8062 5.72954 96.6704 5.92183 96.5098 6.09664C95.7713 6.90516 95.8058 7.09964 96.8902 7.56727C96.7346 7.76612 96.6308 8.02397 96.4283 8.12449C96.1862 8.24467 95.8009 8.33426 95.5885 8.24249C95.3859 8.15508 95.2081 7.80327 95.2254 7.58256C95.3019 6.6189 96.0232 6.01361 96.7519 5.42798C96.8186 5.4695 96.8853 5.50883 96.952 5.55035L96.9544 5.54598Z" fill="#D0AB6A"/>
<path d="M17.8585 25.9948C18.0141 25.7873 18.0931 25.5513 18.2487 25.4988C18.5451 25.4027 18.9305 25.3174 19.1948 25.4114C19.3751 25.4748 19.5282 25.8659 19.4936 26.0866C19.3627 26.9257 18.8761 27.5835 18.0832 28.038C18.019 28.0052 17.9523 27.9746 17.8881 27.9418C18.0116 27.7517 18.1178 27.5507 18.2611 27.3737C18.9082 26.5761 18.8934 26.4953 17.856 25.9927L17.8585 25.9948Z" fill="#D0AB6A"/>
<path d="M98.6834 12.9778C98.5427 13.1679 98.4142 13.3645 98.2586 13.5437C97.6164 14.2845 97.6584 14.4659 98.5896 14.8461C98.6489 15.2613 98.3895 15.5126 97.9943 15.6524C97.4237 15.8534 96.9025 15.4907 97.0186 14.9663C97.2113 14.0944 97.6831 13.3711 98.6834 12.9778Z" fill="#D0AB6A"/>
</svg>
